#N canvas 124 158 1018 577 12;
#X obj 133 555 dac~;
#X obj 134 518 *~;
#N canvas 533 163 635 645 BassDrum 0;
#X obj 32 37 r bBD;
#X text 42 18 bass drum;
#X obj 31 122 osc~;
#X obj 32 94 line~;
#X obj 32 216 *~;
#X msg 76 87 1 10;
#X obj 76 188 line~;
#X obj 97 111 t b;
#X obj 97 132 del 10;
#X msg 32 61 200 \, 0 300;
#X obj 97 156 0 300;
#X obj 32 240 outlet~;
#X connect 0 0 9 0;
#X connect 2 0 4 0;
#X connect 3 0 2 0;
#X connect 4 0 11 0;
#X connect 5 0 6 0;
#X connect 5 0 7 0;
#X connect 6 0 4 1;
#X connect 7 0 8 0;
#X connect 8 0 10 0;
#X connect 9 0 3 0;
#X connect 9 0 5 0;
#X connect 10 0 6 0;
#X restore 560 370 pd BassDrum;
#N canvas 682 0 687 848 HitHat 0;
#X obj 56 336 *~;
#X obj 124 223 t b;
#X obj 111 315 line~;
#X msg 111 194 1 5;
#X msg 125 274 0 100;
#X obj 111 126 r bHH;
#X obj 125 249 delay 5;
#X obj 29 93 bp~ 3462 0.3;
#X obj 28 167 clip~ -1 1;
#X obj 28 145 hip~ 6700;
#X obj 29 119 hip~ 6700;
#X obj 28 37 noise~ 0.3;
#X obj 28 218 hip~ 7029;
#X obj 27 243 lop~ 7029;
#X obj 28 264 hip~ 3764;
#X obj 28 67 *~ 0.2;
#X obj 27 192 bp~ 7029 8;
#X obj 27 285 lop~ 3764;
#X text 67 10 hita hat;
#X obj 28 307 *~ 14;
#X obj 56 360 outlet~;
#X connect 0 0 20 0;
#X connect 1 0 6 0;
#X connect 2 0 0 1;
#X connect 3 0 1 0;
#X connect 3 0 2 0;
#X connect 4 0 2 0;
#X connect 5 0 3 0;
#X connect 6 0 4 0;
#X connect 7 0 10 0;
#X connect 8 0 16 0;
#X connect 9 0 8 0;
#X connect 10 0 9 0;
#X connect 11 0 15 0;
#X connect 12 0 13 0;
#X connect 13 0 14 0;
#X connect 14 0 17 0;
#X connect 15 0 7 0;
#X connect 16 0 12 0;
#X connect 17 0 19 0;
#X connect 19 0 0 0;
#X restore 648 370 pd HitHat;
#N canvas 52 52 975 693 CowBell 0;
#X obj 31 345 *~;
#X obj 215 199 t b;
#X obj 204 287 line~;
#X msg 205 166 1 5;
#X obj 215 226 delay 5;
#X obj 224 39 r bCB;
#X obj 28 301 bp~ 2691 2.6;
#X obj 27 276 bp~ 2691 2.6;
#X obj 88 174 line~;
#X obj 89 198 *~;
#X obj 89 107 del 2.2;
#X msg 88 139 0.3 70;
#X obj 153 111 del 76;
#X msg 154 141 0 400;
#X obj 60 59 t b;
#X msg 61 91 1 2;
#X obj 28 249 *~;
#X msg 216 250 0 500;
#X obj 25 197 osc~ 600;
#X text 141 9 cowbell;
#X obj 31 369 outlet~;
#X connect 0 0 20 0;
#X connect 1 0 4 0;
#X connect 2 0 0 1;
#X connect 3 0 1 0;
#X connect 3 0 2 0;
#X connect 4 0 17 0;
#X connect 5 0 14 0;
#X connect 5 0 3 0;
#X connect 6 0 0 0;
#X connect 7 0 6 0;
#X connect 8 0 9 0;
#X connect 8 0 9 1;
#X connect 9 0 16 1;
#X connect 10 0 11 0;
#X connect 11 0 8 0;
#X connect 12 0 13 0;
#X connect 13 0 8 0;
#X connect 14 0 15 0;
#X connect 14 0 10 0;
#X connect 14 0 12 0;
#X connect 15 0 8 0;
#X connect 16 0 7 0;
#X connect 17 0 2 0;
#X connect 18 0 16 0;
#X restore 725 370 pd CowBell;
#N canvas 78 0 1216 848 Snare 0;
#X text 72 43 snare;
#X obj 143 228 vline~;
#X obj 129 443 *~;
#X obj 97 275 cos~;
#X obj 113 145 t f f;
#X obj 97 255 *~;
#X msg 113 119 70;
#X obj 147 69 t b b b;
#X obj 143 286 *~;
#X obj 129 421 cos~;
#X obj 82 326 +~;
#X obj 31 353 *~;
#X obj 144 311 *~;
#X obj 83 301 sig~ 5;
#X msg 169 123 6;
#X obj 113 171 /;
#X msg 143 206 1 0 0 \, 0 \$1 3;
#X obj 67 94 del 5;
#X msg 67 119 90;
#X obj 32 277 r~ fb;
#X obj 150 522 s~ fb;
#X obj 101 519 *~ 1.5;
#X obj 147 36 r bSn;
#X obj 226 520 outlet~;
#X connect 1 0 5 0;
#X connect 1 0 8 0;
#X connect 1 0 8 1;
#X connect 2 0 20 0;
#X connect 2 0 21 0;
#X connect 2 0 23 0;
#X connect 3 0 10 1;
#X connect 4 0 15 0;
#X connect 4 1 16 0;
#X connect 5 0 3 0;
#X connect 6 0 4 0;
#X connect 7 0 17 0;
#X connect 7 1 14 0;
#X connect 8 0 12 0;
#X connect 8 0 12 1;
#X connect 9 0 2 0;
#X connect 10 0 11 1;
#X connect 11 0 9 0;
#X connect 12 0 2 1;
#X connect 13 0 10 0;
#X connect 14 0 15 1;
#X connect 15 0 5 1;
#X connect 16 0 1 0;
#X connect 17 0 18 0;
#X connect 17 0 6 0;
#X connect 18 0 4 0;
#X connect 19 0 11 0;
#X connect 22 0 7 0;
#X restore 810 370 pd Snare;
#N canvas 104 104 842 697 AniadirNodo 0;
#X obj 177 59 r bNodo;
#X obj 106 89 noise~;
#X obj 103 170 lop~;
#X obj 29 307 *~;
#X obj 25 214 osc~;
#X obj 26 269 *~;
#X floatatom 24 153 5 0 0 0 - - - 0;
#X obj 28 99 loadbang;
#X obj 235 131 t b;
#X obj 173 234 line~;
#X obj 173 149 line;
#X obj 25 185 +;
#X obj 174 172 * 300;
#X msg 25 131 320;
#X msg 173 113 1 200;
#X obj 235 158 delay 200;
#X msg 238 181 0 10;
#X text 112 17 se aniade un nodo;
#X obj 122 132 * 320;
#X obj 29 331 *~ 1.5;
#X obj 30 366 outlet~;
#X connect 0 0 14 0;
#X connect 1 0 2 0;
#X connect 2 0 5 1;
#X connect 3 0 19 0;
#X connect 4 0 5 0;
#X connect 5 0 3 0;
#X connect 6 0 11 1;
#X connect 7 0 13 0;
#X connect 8 0 15 0;
#X connect 9 0 3 1;
#X connect 10 0 12 0;
#X connect 10 0 18 0;
#X connect 11 0 4 0;
#X connect 12 0 11 0;
#X connect 13 0 6 0;
#X connect 14 0 8 0;
#X connect 14 0 9 0;
#X connect 14 0 10 0;
#X connect 15 0 16 0;
#X connect 16 0 9 0;
#X connect 16 0 10 0;
#X connect 18 0 2 1;
#X connect 19 0 20 0;
#X restore 156 80 pd AniadirNodo;
#N canvas 130 130 450 678 ColisionComida 0;
#X text 62 27 colisiona con comida;
#X obj 64 363 osc~;
#X floatatom 71 113 5 0 0 0 - - - 0;
#X obj 228 110 t b;
#X obj 169 312 line~;
#X obj 58 434 *~;
#X obj 74 57 loadbang;
#X obj 30 147 *;
#X obj 122 207 line;
#X msg 71 89 220;
#X obj 19 360 osc~;
#X obj 58 393 *~;
#X msg 173 121 1 50;
#X obj 228 137 delay 50;
#X msg 229 161 0 10;
#X obj 171 53 r bColComida;
#X obj 36 292 + 5;
#X obj 18 325 *;
#X obj 36 260 random 10;
#X obj 58 458 outlet~;
#X connect 1 0 11 1;
#X connect 2 0 7 1;
#X connect 3 0 13 0;
#X connect 4 0 5 1;
#X connect 5 0 19 0;
#X connect 6 0 9 0;
#X connect 7 0 1 0;
#X connect 7 0 17 0;
#X connect 8 0 7 0;
#X connect 9 0 2 0;
#X connect 10 0 11 0;
#X connect 11 0 5 0;
#X connect 12 0 3 0;
#X connect 12 0 4 0;
#X connect 12 0 8 0;
#X connect 13 0 14 0;
#X connect 14 0 4 0;
#X connect 14 0 8 0;
#X connect 15 0 12 0;
#X connect 15 0 18 0;
#X connect 16 0 17 1;
#X connect 17 0 10 0;
#X connect 18 0 16 0;
#X restore 28 79 pd ColisionComida;
#N canvas 156 156 450 300 ColisionCola 0;
#X obj 160 42 r bMorido;
#X obj 20 85 noise~;
#X obj 21 217 *~;
#X obj 222 128 t b;
#X obj 160 231 line~;
#X msg 160 110 1 100;
#X obj 222 155 delay 100;
#X obj 19 124 hip~ 600;
#X obj 107 86 line;
#X obj 101 168 + 600;
#X obj 20 165 lop~;
#X obj 101 121 * 2400;
#X msg 223 179 0 250;
#X text 65 8 colisiona con su cola el gusano;
#X obj 21 241 outlet~;
#X connect 0 0 5 0;
#X connect 1 0 7 0;
#X connect 2 0 14 0;
#X connect 3 0 6 0;
#X connect 4 0 2 1;
#X connect 5 0 3 0;
#X connect 5 0 4 0;
#X connect 5 0 8 0;
#X connect 6 0 12 0;
#X connect 7 0 10 0;
#X connect 8 0 11 0;
#X connect 9 0 10 1;
#X connect 10 0 2 0;
#X connect 11 0 9 0;
#X connect 12 0 4 0;
#X connect 12 0 8 0;
#X restore 267 79 pd ColisionCola;
#N canvas 197 0 487 848 HoverMenu 0;
#X obj 156 564 noise~;
#X obj 182 605 lop~;
#X obj 72 699 *~;
#X obj 13 533 osc~;
#X obj 44 667 *~;
#X floatatom 32 201 5 0 0 0 - - - 0;
#X obj 153 146 t b;
#X obj 234 306 line~;
#X obj 64 316 line;
#X obj 73 758 outlet~;
#X text 121 10 Se pasa el mouse sobre una opcion;
#X obj 190 63 r bHover;
#X obj 205 480 * 100;
#X obj 12 503 +;
#X obj 46 160 + 200;
#X obj 182 629 lop~ 600;
#X obj 182 653 hip~ 100;
#X msg 152 251 0 5;
#X obj 152 219 delay 50;
#X msg 188 113 1 50;
#X obj 72 723 *~ 10;
#X obj 182 677 lop~ 3600;
#X obj 61 421 * 1600;
#X obj 46 136 random 3000;
#X connect 0 0 1 0;
#X connect 1 0 15 0;
#X connect 2 0 20 0;
#X connect 3 0 4 0;
#X connect 4 0 2 0;
#X connect 5 0 13 1;
#X connect 6 0 18 0;
#X connect 6 0 23 0;
#X connect 7 0 2 1;
#X connect 8 0 12 0;
#X connect 8 0 22 0;
#X connect 11 0 19 0;
#X connect 12 0 1 1;
#X connect 13 0 3 0;
#X connect 14 0 5 0;
#X connect 15 0 16 0;
#X connect 16 0 21 0;
#X connect 17 0 7 0;
#X connect 17 0 8 0;
#X connect 18 0 17 0;
#X connect 19 0 6 0;
#X connect 19 0 7 0;
#X connect 19 0 8 0;
#X connect 20 0 9 0;
#X connect 21 0 4 1;
#X connect 22 0 13 0;
#X connect 23 0 14 0;
#X restore 334 122 pd HoverMenu;
#X obj 810 229 random 4;
#X obj 808 265 sel 0 1 2 3, f 24;
#X obj 625 337 s bBD;
#X obj 810 205 r bSoundT;
#X obj 669 336 s bHH;
#X obj 711 336 s bCB;
#X obj 754 336 s bSn;
#X obj 325 365 line~;
#X msg 325 335 \$1 20;
#X obj 325 311 r fVol;
#X msg 266 326 0.5;
#X obj 266 288 loadbang;
#X obj 809 296 t b;
#X obj 849 296 t b;
#X obj 889 296 t b;
#X obj 929 296 t b;
#X connect 1 0 0 1;
#X connect 1 0 0 0;
#X connect 2 0 1 0;
#X connect 3 0 1 0;
#X connect 4 0 1 0;
#X connect 5 0 1 0;
#X connect 6 0 1 0;
#X connect 7 0 1 0;
#X connect 8 0 1 0;
#X connect 9 0 1 0;
#X connect 10 0 11 0;
#X connect 11 0 22 0;
#X connect 11 1 23 0;
#X connect 11 2 24 0;
#X connect 11 3 25 0;
#X connect 13 0 10 0;
#X connect 17 0 1 1;
#X connect 18 0 17 0;
#X connect 19 0 18 0;
#X connect 20 0 18 0;
#X connect 21 0 20 0;
#X connect 22 0 12 0;
#X connect 23 0 14 0;
#X connect 24 0 15 0;
#X connect 25 0 16 0;
