#N canvas 554 1 709 691 12;
#X obj 315 800 dac~;
#X text 62 27 colisiona con comida;
#X obj 64 363 osc~;
#X obj 316 763 *~;
#X floatatom 71 113 5 0 0 0 - - - 0;
#X obj 228 110 t b;
#X obj 169 312 line~;
#X obj 58 434 *~;
#X obj 336 680 loadbang;
#X msg 336 708 0.1;
#X obj 74 57 loadbang;
#X obj 30 147 *;
#X obj 97 176 line;
#X msg 71 89 220;
#X obj 19 360 osc~;
#X obj 58 393 *~;
#X msg 166 92 1 50;
#X obj 228 137 delay 50;
#X msg 229 161 0 10;
#X obj 231 26 r bColComida;
#X obj 36 292 + 5;
#X obj 18 325 *;
#X obj 36 260 random 10;
#X obj 542 67 r bMorido;
#X obj 402 110 noise~;
#X obj 403 242 *~;
#X obj 604 153 t b;
#X obj 542 256 line~;
#X msg 542 135 1 100;
#X obj 604 180 delay 100;
#X obj 401 149 hip~ 600;
#X obj 489 111 line;
#X obj 483 193 + 600;
#X obj 402 190 lop~;
#X obj 483 146 * 2400;
#X msg 605 204 0 250;
#X text 447 33 colisiona con su cola el gusano;
#X obj 207 494 r bNodo;
#X obj 136 524 noise~;
#X obj 133 605 lop~;
#X obj 59 742 *~;
#X obj 55 649 osc~;
#X obj 56 704 *~;
#X floatatom 54 588 5 0 0 0 - - - 0;
#X obj 58 534 loadbang;
#X obj 265 566 t b;
#X obj 203 669 line~;
#X obj 203 584 line;
#X obj 55 620 +;
#X obj 204 607 * 300;
#X msg 55 566 320;
#X msg 203 548 1 200;
#X obj 265 593 delay 200;
#X msg 268 616 0 10;
#X text 142 452 se aniade un nodo;
#X obj 594 647 *~;
#X obj 662 534 t b;
#X obj 649 626 line~;
#X msg 649 505 1 5;
#X msg 663 585 0 100;
#X obj 649 437 r bHH;
#X obj 461 424 r bBD;
#X obj 781 720 *~;
#X obj 931 646 t b;
#X obj 920 734 line~;
#X msg 921 613 1 5;
#X obj 931 673 delay 5;
#X obj 663 560 delay 5;
#X obj 567 404 bp~ 3462 0.3;
#X obj 566 478 clip~ -1 1;
#X obj 566 456 hip~ 6700;
#X obj 567 430 hip~ 6700;
#X obj 566 348 noise~ 0.3;
#X obj 566 529 hip~ 7029;
#X obj 565 554 lop~ 7029;
#X obj 566 575 hip~ 3764;
#X obj 566 378 *~ 0.2;
#X obj 565 503 bp~ 7029 8;
#X obj 565 596 lop~ 3764;
#X obj 974 414 r bCB;
#X obj 778 676 bp~ 2691 2.6;
#X obj 777 651 bp~ 2691 2.6;
#X obj 838 549 line~;
#X obj 839 573 *~;
#X obj 839 482 del 2.2;
#X msg 838 514 0.3 70;
#X obj 903 486 del 76;
#X msg 904 516 0 400;
#X obj 810 434 t b;
#X msg 811 466 1 2;
#X obj 778 624 *~;
#X msg 932 697 0 500;
#X obj 775 572 osc~ 600;
#X text 425 339 bass drum;
#X text 605 321 hita hat;
#X text 891 384 cowbell;
#X text 1084 65 snare;
#X obj 566 618 *~ 14;
#X obj 1155 250 vline~;
#X obj 1141 465 *~;
#X obj 1109 297 cos~;
#X obj 1125 167 t f f;
#X obj 1109 277 *~;
#X msg 1125 141 70;
#X obj 1159 91 t b b b;
#X obj 1155 308 *~;
#X obj 1141 443 cos~;
#X obj 1094 348 +~;
#X obj 1043 375 *~;
#X obj 1156 333 *~;
#X obj 1095 323 sig~ 5;
#X msg 1181 145 6;
#X obj 1125 193 /;
#X msg 1155 228 1 0 0 \, 0 \$1 3;
#X obj 1079 116 del 5;
#X msg 1079 141 90;
#X obj 1044 299 r~ fb;
#X obj 1162 544 s~ fb;
#X obj 1113 541 *~ 1.5;
#X obj 1159 58 r bSn;
#X obj 453 531 osc~;
#X obj 454 503 line~;
#X obj 466 586 *~ 2;
#X msg 461 448 200 \, 0 250;
#X obj 152 567 * 320;
#X connect 2 0 15 1;
#X connect 3 0 0 1;
#X connect 3 0 0 0;
#X connect 4 0 11 1;
#X connect 5 0 17 0;
#X connect 6 0 7 1;
#X connect 7 0 3 0;
#X connect 8 0 9 0;
#X connect 9 0 3 1;
#X connect 10 0 13 0;
#X connect 11 0 2 0;
#X connect 11 0 21 0;
#X connect 12 0 11 0;
#X connect 13 0 4 0;
#X connect 14 0 15 0;
#X connect 15 0 7 0;
#X connect 16 0 5 0;
#X connect 16 0 6 0;
#X connect 16 0 12 0;
#X connect 17 0 18 0;
#X connect 18 0 6 0;
#X connect 18 0 12 0;
#X connect 19 0 16 0;
#X connect 19 0 22 0;
#X connect 20 0 21 1;
#X connect 21 0 14 0;
#X connect 22 0 20 0;
#X connect 23 0 28 0;
#X connect 24 0 30 0;
#X connect 25 0 3 0;
#X connect 26 0 29 0;
#X connect 27 0 25 1;
#X connect 28 0 26 0;
#X connect 28 0 27 0;
#X connect 28 0 31 0;
#X connect 29 0 35 0;
#X connect 30 0 33 0;
#X connect 31 0 34 0;
#X connect 32 0 33 1;
#X connect 33 0 25 0;
#X connect 34 0 32 0;
#X connect 35 0 27 0;
#X connect 35 0 31 0;
#X connect 37 0 51 0;
#X connect 38 0 39 0;
#X connect 39 0 42 1;
#X connect 40 0 3 0;
#X connect 41 0 42 0;
#X connect 42 0 40 0;
#X connect 43 0 48 1;
#X connect 44 0 50 0;
#X connect 45 0 52 0;
#X connect 46 0 40 1;
#X connect 47 0 49 0;
#X connect 47 0 124 0;
#X connect 48 0 41 0;
#X connect 49 0 48 0;
#X connect 50 0 43 0;
#X connect 51 0 45 0;
#X connect 51 0 46 0;
#X connect 51 0 47 0;
#X connect 52 0 53 0;
#X connect 53 0 46 0;
#X connect 53 0 47 0;
#X connect 55 0 3 0;
#X connect 56 0 67 0;
#X connect 57 0 55 1;
#X connect 58 0 56 0;
#X connect 58 0 57 0;
#X connect 59 0 57 0;
#X connect 60 0 58 0;
#X connect 61 0 123 0;
#X connect 62 0 3 0;
#X connect 63 0 66 0;
#X connect 64 0 62 1;
#X connect 65 0 63 0;
#X connect 65 0 64 0;
#X connect 66 0 91 0;
#X connect 67 0 59 0;
#X connect 68 0 71 0;
#X connect 69 0 77 0;
#X connect 70 0 69 0;
#X connect 71 0 70 0;
#X connect 72 0 76 0;
#X connect 73 0 74 0;
#X connect 74 0 75 0;
#X connect 75 0 78 0;
#X connect 76 0 68 0;
#X connect 77 0 73 0;
#X connect 78 0 97 0;
#X connect 79 0 65 0;
#X connect 79 0 88 0;
#X connect 80 0 62 0;
#X connect 81 0 80 0;
#X connect 82 0 83 0;
#X connect 82 0 83 1;
#X connect 83 0 90 1;
#X connect 84 0 85 0;
#X connect 85 0 82 0;
#X connect 86 0 87 0;
#X connect 87 0 82 0;
#X connect 88 0 89 0;
#X connect 88 0 84 0;
#X connect 88 0 86 0;
#X connect 89 0 82 0;
#X connect 90 0 81 0;
#X connect 91 0 64 0;
#X connect 92 0 90 0;
#X connect 97 0 55 0;
#X connect 98 0 102 0;
#X connect 98 0 105 0;
#X connect 98 0 105 1;
#X connect 99 0 117 0;
#X connect 99 0 118 0;
#X connect 99 0 3 0;
#X connect 100 0 107 1;
#X connect 101 0 112 0;
#X connect 101 1 113 0;
#X connect 102 0 100 0;
#X connect 103 0 101 0;
#X connect 104 0 114 0;
#X connect 104 1 111 0;
#X connect 105 0 109 0;
#X connect 105 0 109 1;
#X connect 106 0 99 0;
#X connect 107 0 108 1;
#X connect 108 0 106 0;
#X connect 109 0 99 1;
#X connect 110 0 107 0;
#X connect 111 0 112 1;
#X connect 112 0 102 1;
#X connect 113 0 98 0;
#X connect 114 0 115 0;
#X connect 114 0 103 0;
#X connect 115 0 101 0;
#X connect 116 0 108 0;
#X connect 119 0 104 0;
#X connect 120 0 122 0;
#X connect 121 0 120 0;
#X connect 122 0 3 0;
#X connect 123 0 121 0;
#X connect 124 0 39 1;
