#N canvas 325 275 826 523 12;
#X obj 85 483 dac~;
#X text 70 69 colisiona con comida;
#X obj 91 269 osc~;
#X obj 86 434 *~;
#X floatatom 109 155 5 0 0 0 - - - 0;
#X obj 266 152 t b;
#X obj 207 354 line~;
#X obj 85 340 *~;
#X obj 269 98 bng 19 250 50 0 empty empty bang_col_com 0 -10 0 12 #fcfcfc #000000 #000000;
#X obj 104 379 loadbang;
#X msg 104 407 0.1;
#X obj 112 99 loadbang;
#X obj 68 189 *;
#X obj 135 218 line;
#X msg 109 131 220;
#X obj 46 266 osc~;
#X obj 85 299 *~;
#X msg 204 134 1 50;
#X obj 266 179 delay 50;
#X obj 45 231 * 8;
#X msg 267 203 0 10;
#X msg 138 312 1;
#X connect 2 0 16 1;
#X connect 3 0 0 1;
#X connect 3 0 0 0;
#X connect 4 0 12 1;
#X connect 5 0 18 0;
#X connect 6 0 7 1;
#X connect 7 0 3 0;
#X connect 8 0 17 0;
#X connect 9 0 10 0;
#X connect 10 0 3 1;
#X connect 11 0 14 0;
#X connect 12 0 2 0;
#X connect 12 0 19 0;
#X connect 13 0 12 0;
#X connect 14 0 4 0;
#X connect 15 0 16 0;
#X connect 16 0 7 0;
#X connect 17 0 5 0;
#X connect 17 0 6 0;
#X connect 17 0 13 0;
#X connect 18 0 20 0;
#X connect 19 0 15 0;
#X connect 20 0 6 0;
#X connect 20 0 13 0;
